<!DOCTYPE svg PUBLIC "-//W3C//DTD SVG 1.1//EN" "http://www.w3.org/Graphics/SVG/1.1/DTD/svg11.dtd">
<!-- Uploaded to: SVG Repo, www.svgrepo.com, Transformed by: SVG Repo Mixer Tools -->
<svg width="800px" height="800px" viewBox="-2.4 -2.4 28.80 28.80" fill="none" xmlns="http://www.w3.org/2000/svg" stroke="#3f1985" stroke-width="0.00024000000000000003" transform="matrix(1, 0, 0, -1, 0, 0)rotate(0)">
<g id="SVGRepo_bgCarrier" stroke-width="0">
<path transform="translate(-2.4, -2.4), scale(0.8999999999999999)" d="M16,31.851310450583696C20.44276447766052,32.142406664749764,23.41214744928119,27.584866523593277,25.88059023874749,23.879507781852364C28.024480557267186,20.661332028717652,29.41163802503262,16.903884827550083,28.45341852216945,13.1575884884654C27.522486832523537,9.517977762073826,24.56498520763825,6.869870864586195,21.136857505372944,5.333205478949889C17.837098061839512,3.8540814327675728,14.118215184899901,3.7602388491642067,10.825989628250527,5.256056756975028C7.434975080508934,6.796759299640785,4.466261109858118,9.550542784171459,3.7923115640931524,13.213674777116164C3.1441855421518143,16.736447633559727,5.657126770242335,19.686678469092275,7.619743827392147,22.683031289672265C10.006562116166439,26.32701761177567,11.653228434007282,31.56650382780015,16,31.851310450583696" fill="#9edff5" strokewidth="0"/>
</g>
<g id="SVGRepo_tracerCarrier" stroke-linecap="round" stroke-linejoin="round" stroke="#CCCCCC" stroke-width="0.72"/>
<g id="SVGRepo_iconCarrier"> <path d="M11 8V10H8V14H11V16H6V8H11Z" fill="#fffafa"/> <path d="M18 8V10H15V14H18V16H13V8H18Z" fill="#fffafa"/> <path fill-rule="evenodd" clip-rule="evenodd" d="M2 5C2 4.44772 2.44772 4 3 4H21C21.5523 4 22 4.44772 22 5V19C22 19.5523 21.5523 20 21 20H3C2.44772 20 2 19.5523 2 19V5ZM4 18V6H20V18H4Z" fill="#fffafa"/> </g>
</svg>